<?xml version="1.0" encoding="utf-8"?>
<!-- Generator: Adobe Illustrator 20.1.0, SVG Export Plug-In . SVG Version: 6.00 Build 0)  -->
<svg version="1.1" id="Layer_1" xmlns="http://www.w3.org/2000/svg" xmlns:xlink="http://www.w3.org/1999/xlink" x="0px" y="0px"
     viewBox="0 0 90.7 90.7" style="enable-background:new 0 0 90.7 90.7;" xml:space="preserve" >
<style type="text/css">
	.st0{fill:#0a677c;}
</style>
<g>
	<path class="st0" d="M22.3,11.6c0-5.8-4.7-10.5-10.5-10.5S1.3,5.8,1.3,11.6V79l0,0l0,0c0,5.8,4.7,10.5,10.5,10.5h77.8V11.6H22.3z
		 M4.3,11.6c0-3.6,2.6-6.7,6-7.3c0,0.7,0.7,1.3,1.5,1.3s1.3-0.6,1.5-1.3c3.4,0.7,6,3.7,6,7.3v60.1c-1.9-1.9-4.5-3.2-7.5-3.2
		c-0.4,0-0.7,0-1.1,0c-0.2,0-0.4,0-0.6,0c-0.2,0-0.4,0-0.6,0.2c-0.2,0-0.4,0.2-0.6,0.2c-0.2,0-0.2,0-0.4,0.2c-0.2,0-0.6,0.2-0.7,0.2
		H7.7c-0.4,0.2-0.6,0.2-0.9,0.4l0,0c-0.9,0.6-1.7,1.1-2.4,1.9C4.3,71.5,4.3,11.6,4.3,11.6z M86.6,86.5H11.8c-4.1,0-7.3-3.4-7.3-7.5
		c0-4.1,3.4-7.5,7.5-7.5s7.5,3.4,7.5,7.5h3V14.6h64.4v71.8H86.6z"/>
	<path class="st0" d="M70.1,32.6c0.2,0.2,0.6,0.2,0.9,0.2c0.6,0,0.9-0.2,1.3-0.6c0.6-0.7,0.4-1.7-0.4-2.1l-2.4-1.7
		c-0.7-0.6-1.7-0.4-2.1,0.4c-0.6,0.7-0.4,1.7,0.4,2.1L70.1,32.6z"/>
	<path class="st0" d="M77.4,37.8C77.6,38,78,38,78.4,38s0.9-0.2,1.3-0.6c0.6-0.7,0.4-1.7-0.4-2.1l-2.6-1.9c-0.7-0.6-1.7-0.4-2.1,0.4
		c-0.6,0.7-0.4,1.7,0.4,2.1L77.4,37.8z"/>
	<path class="st0" d="M56.7,62.5c0,0.7,0.7,1.5,1.5,1.5h3c0.7,0,1.5-0.7,1.5-1.5c0-0.7-0.7-1.5-1.5-1.5h-3
		C57.4,61,56.7,61.8,56.7,62.5L56.7,62.5z"/>
	<path class="st0" d="M77.6,42.1v3c0,0.7,0.7,1.5,1.5,1.5c0.7,0,1.5-0.7,1.5-1.5v-3c0-0.7-0.7-1.5-1.5-1.5S77.6,41.4,77.6,42.1
		L77.6,42.1z"/>
	<path class="st0" d="M62.8,27.3c0.2,0.2,0.6,0.2,0.9,0.2c0.6,0,0.9-0.2,1.3-0.6c0.6-0.7,0.4-1.7-0.4-2.1l-2.4-1.7
		c-0.7-0.6-1.7-0.4-2.1,0.4c-0.6,0.7-0.4,1.7,0.4,2.1L62.8,27.3z"/>
	<path class="st0" d="M65.7,62.5c0,0.7,0.7,1.5,1.5,1.5h3c0.7,0,1.5-0.7,1.5-1.5c0-0.7-0.7-1.5-1.5-1.5h-3
		C66.4,61,65.7,61.8,65.7,62.5L65.7,62.5z"/>
	<path class="st0" d="M44.7,62.5c0-0.7-0.7-1.5-1.5-1.5h-3c-0.7,0-1.5,0.7-1.5,1.5c0,0.7,0.7,1.5,1.5,1.5h3
		C44,64,44.7,63.4,44.7,62.5L44.7,62.5z"/>
	<path class="st0" d="M79.1,55.6c0.7,0,1.5-0.7,1.5-1.5v-3c0-0.7-0.7-1.5-1.5-1.5c-0.7,0-1.5,0.7-1.5,1.5v3
		C77.6,55,78.4,55.6,79.1,55.6L79.1,55.6z"/>
	<path class="st0" d="M55.6,22.3c0.2,0.2,0.6,0.2,0.9,0.2c0.6,0,0.9-0.2,1.3-0.6c0.6-0.7,0.4-1.7-0.4-2.1L55,18.2
		c-0.7-0.6-1.7-0.4-2.1,0.4c-0.6,0.7-0.4,1.7,0.4,2.1L55.6,22.3z"/>
	<path class="st0" d="M77.6,61h-1.5c-0.7,0-1.5,0.7-1.5,1.5c0,0.7,0.7,1.5,1.5,1.5h4.5v-3.9c0-0.7-0.7-1.5-1.5-1.5
		c-0.7,0-1.5,0.7-1.5,1.5C77.6,60.1,77.6,61,77.6,61z"/>
	<path class="st0" d="M31.2,64h3c0.7,0,1.5-0.7,1.5-1.5c0-0.7-0.7-1.5-1.5-1.5h-3c-0.7,0-1.5,0.7-1.5,1.5C29.7,63.4,30.5,64,31.2,64
		L31.2,64z"/>
	<path class="st0" d="M28.2,43.1c0.7,0,1.5-0.7,1.5-1.5v-3c0-0.7-0.7-1.5-1.5-1.5c-0.7,0-1.5,0.7-1.5,1.5v3
		C26.7,42.5,27.5,43.1,28.2,43.1L28.2,43.1z"/>
	<path class="st0" d="M32,35.9c0.4,0,0.6-0.2,0.9-0.2l2.4-1.7c0.7-0.6,0.7-1.5,0.4-2.1c-0.6-0.7-1.5-0.7-2.1-0.4l-2.4,1.7
		c-0.7,0.6-0.7,1.5-0.4,2.1C31,35.8,31.4,35.9,32,35.9L32,35.9z"/>
	<path class="st0" d="M39.3,30.9c0.4,0,0.6,0,0.9-0.2l2.4-1.7c0.7-0.6,0.7-1.5,0.4-2.1c-0.6-0.7-1.5-0.7-2.1-0.4l-2.4,1.7
		c-0.7,0.6-0.7,1.5-0.4,2.1C38.3,30.5,38.7,30.9,39.3,30.9L39.3,30.9z"/>
	<path class="st0" d="M28.2,52c0.7,0,1.5-0.7,1.5-1.5v-3c0-0.7-0.7-1.5-1.5-1.5c-0.7,0-1.5,0.7-1.5,1.5v3C26.7,51.5,27.5,52,28.2,52
		L28.2,52z"/>
	<path class="st0" d="M46.6,25.7c0.4,0,0.6,0,0.9-0.2l2.4-1.7c0.7-0.6,0.7-1.5,0.4-2.1c-0.6-0.7-1.5-0.7-2.1-0.4L45.8,23
		c-0.7,0.6-0.7,1.5-0.4,2.1C45.6,25.5,46.2,25.7,46.6,25.7L46.6,25.7z"/>
	<path class="st0" d="M47.7,62.5c0,0.7,0.7,1.5,1.5,1.5h3c0.7,0,1.5-0.7,1.5-1.5c0-0.7-0.7-1.5-1.5-1.5h-3
		C48.4,61,47.7,61.8,47.7,62.5L47.7,62.5z"/>
	<path class="st0" d="M28.2,61c0.7,0,1.5-0.7,1.5-1.5v-3c0-0.7-0.7-1.5-1.5-1.5c-0.7,0-1.5,0.7-1.5,1.5v3C26.7,60.5,27.5,61,28.2,61
		L28.2,61z"/>
	<path class="st0" d="M62.7,82h19.5V70H62.7V82z M65.7,73h13.5v6H65.7V73z"/>
	<path class="st0" d="M34.2,46v3c0,0.7,0.7,1.5,1.5,1.5c0.7,0,1.5-0.7,1.5-1.5v-3c0-0.7-0.7-1.5-1.5-1.5C35,44.6,34.2,45.3,34.2,46
		L34.2,46z"/>
	<path class="st0" d="M47.7,41.6c-0.7,0-1.5,0.7-1.5,1.5v3c0,0.7,0.7,1.5,1.5,1.5c0.7,0,1.5-0.7,1.5-1.5v-3
		C49.2,42.3,48.4,41.6,47.7,41.6L47.7,41.6z"/>
	<path class="st0" d="M38.7,44.6h3c0.7,0,1.5-0.7,1.5-1.5c0-0.7-0.7-1.5-1.5-1.5h-3c-0.7,0-1.5,0.7-1.5,1.5
		C37.2,44,38,44.6,38.7,44.6L38.7,44.6z"/>
	<path class="st0" d="M40.2,55c0-0.7-0.7-1.5-1.5-1.5h-3c-0.7,0-1.5,0.7-1.5,1.5c0,0.7,0.7,1.5,1.5,1.5h3C39.5,56.5,40.2,56,40.2,55
		L40.2,55z"/>
	<path class="st0" d="M44.7,56.5h3c0.7,0,1.5-0.7,1.5-1.5v-3c0-0.7-0.7-1.5-1.5-1.5c-0.7,0-1.5,0.7-1.5,1.5v1.5h-1.5
		c-0.7,0-1.5,0.7-1.5,1.5C43.2,56,44,56.5,44.7,56.5L44.7,56.5z"/>
	<path class="st0" d="M61.2,43.1c0,0.7,0.7,1.5,1.5,1.5h3c0.7,0,1.5-0.7,1.5-1.5c0-0.7-0.7-1.5-1.5-1.5h-3
		C61.9,41.6,61.2,42.3,61.2,43.1L61.2,43.1z"/>
	<path class="st0" d="M70.1,43.1v3c0,0.7,0.7,1.5,1.5,1.5c0.7,0,1.5-0.7,1.5-1.5v-3c0-0.7-0.7-1.5-1.5-1.5S70.1,42.3,70.1,43.1
		L70.1,43.1z"/>
	<path class="st0" d="M71.6,56.5c0.7,0,1.5-0.7,1.5-1.5v-3c0-0.7-0.7-1.5-1.5-1.5c-0.7,0-1.5,0.7-1.5,1.5v1.5h-1.5
		c-0.7,0-1.5,0.7-1.5,1.5c0,0.7,0.7,1.5,1.5,1.5H71.6z"/>
	<path class="st0" d="M59.7,50.5c0.7,0,1.5-0.7,1.5-1.5v-3c0-0.7-0.7-1.5-1.5-1.5c-0.7,0-1.5,0.7-1.5,1.5v3
		C58.2,50,58.9,50.5,59.7,50.5L59.7,50.5z"/>
	<path class="st0" d="M59.7,56.5h3c0.7,0,1.5-0.7,1.5-1.5c0-0.7-0.7-1.5-1.5-1.5h-3c-0.7,0-1.5,0.7-1.5,1.5
		C58.2,56,58.9,56.5,59.7,56.5L59.7,56.5z"/>
	<path class="st0" d="M58.2,70h-7.5c-0.7,0-1.5,0.7-1.5,1.5c0,0.7,0.7,1.5,1.5,1.5h7.5c0.7,0,1.5-0.7,1.5-1.5
		C59.7,70.7,58.9,70,58.2,70L58.2,70z"/>
	<path class="st0" d="M58.2,74.5H47.7c-0.7,0-1.5,0.7-1.5,1.5s0.7,1.5,1.5,1.5h10.5c0.7,0,1.5-0.7,1.5-1.5S58.9,74.5,58.2,74.5
		L58.2,74.5z"/>
	<path class="st0" d="M58.2,79h-15c-0.7,0-1.5,0.7-1.5,1.5c0,0.7,0.7,1.5,1.5,1.5h15c0.7,0,1.5-0.7,1.5-1.5
		C59.7,79.7,58.9,79,58.2,79L58.2,79z"/>
	<path class="st0" d="M8.8,8.6c0,0.7-0.7,1.5-1.5,1.5c-0.7,0-1.5-0.7-1.5-1.5s0.7-1.5,1.5-1.5C8,7.1,8.8,7.9,8.8,8.6L8.8,8.6z"/>
	<path class="st0" d="M17.8,8.6c0,0.7-0.7,1.5-1.5,1.5s-1.5-0.7-1.5-1.5s0.7-1.5,1.5-1.5C17,7.1,17.8,7.9,17.8,8.6L17.8,8.6z"/>
	<path class="st0" d="M13.3,13.1c0,0.7-0.7,1.5-1.5,1.5s-1.5-0.7-1.5-1.5s0.7-1.5,1.5-1.5C12.5,11.6,13.3,12.4,13.3,13.1L13.3,13.1z
		"/>
	<path class="st0" d="M8.8,17.6c0,0.7-0.7,1.5-1.5,1.5c-0.7,0-1.5-0.7-1.5-1.5s0.7-1.5,1.5-1.5C8,16.1,8.8,16.9,8.8,17.6L8.8,17.6z"
		/>
	<path class="st0" d="M17.8,17.6c0,0.7-0.7,1.5-1.5,1.5s-1.5-0.7-1.5-1.5s0.7-1.5,1.5-1.5S17.8,16.9,17.8,17.6L17.8,17.6z"/>
	<path class="st0" d="M8.8,26.6c0,0.7-0.7,1.5-1.5,1.5c-0.7,0-1.5-0.7-1.5-1.5c0-0.7,0.7-1.5,1.5-1.5C8,25.1,8.8,25.8,8.8,26.6
		L8.8,26.6z"/>
	<path class="st0" d="M17.8,26.6c0,0.7-0.7,1.5-1.5,1.5s-1.5-0.7-1.5-1.5c0-0.7,0.7-1.5,1.5-1.5S17.8,25.8,17.8,26.6L17.8,26.6z"/>
	<path class="st0" d="M13.3,22.1c0,0.7-0.7,1.5-1.5,1.5s-1.5-0.7-1.5-1.5c0-0.7,0.7-1.5,1.5-1.5C12.5,20.6,13.3,21.4,13.3,22.1
		L13.3,22.1z"/>
	<path class="st0" d="M13.3,31.1c0,0.7-0.7,1.5-1.5,1.5s-1.5-0.7-1.5-1.5s0.7-1.5,1.5-1.5S13.3,30.3,13.3,31.1L13.3,31.1z"/>
	<path class="st0" d="M8.8,35.6c0,0.7-0.7,1.5-1.5,1.5c-0.7,0-1.5-0.7-1.5-1.5c0-0.7,0.7-1.5,1.5-1.5C8,34.1,8.8,34.8,8.8,35.6
		L8.8,35.6z"/>
	<path class="st0" d="M17.8,35.6c0,0.7-0.7,1.5-1.5,1.5s-1.5-0.7-1.5-1.5c0-0.7,0.7-1.5,1.5-1.5S17.8,34.8,17.8,35.6L17.8,35.6z"/>
	<path class="st0" d="M8.8,44.6C8.8,45.3,8,46,7.3,46c-0.7,0-1.5-0.7-1.5-1.5c0-0.7,0.7-1.5,1.5-1.5C8,43.1,8.8,43.8,8.8,44.6
		L8.8,44.6z"/>
	<path class="st0" d="M17.8,44.6c0,0.7-0.7,1.5-1.5,1.5s-1.5-0.7-1.5-1.5c0-0.7,0.7-1.5,1.5-1.5C17,43.1,17.8,43.8,17.8,44.6
		L17.8,44.6z"/>
	<path class="st0" d="M13.3,40.1c0,0.7-0.7,1.5-1.5,1.5s-1.5-0.7-1.5-1.5c0-0.7,0.7-1.5,1.5-1.5S13.3,39.3,13.3,40.1L13.3,40.1z"/>
	<path class="st0" d="M13.3,49c0,0.7-0.7,1.5-1.5,1.5s-1.5-0.7-1.5-1.5c0-0.7,0.7-1.5,1.5-1.5S13.3,48.3,13.3,49L13.3,49z"/>
	<path class="st0" d="M8.8,53.5C8.8,54.3,8,55,7.3,55c-0.7,0-1.5-0.7-1.5-1.5c0-0.7,0.7-1.5,1.5-1.5C8,52,8.8,52.8,8.8,53.5
		L8.8,53.5z"/>
	<path class="st0" d="M17.8,53.5c0,0.7-0.7,1.5-1.5,1.5s-1.5-0.7-1.5-1.5c0-0.7,0.7-1.5,1.5-1.5S17.8,52.8,17.8,53.5L17.8,53.5z"/>
	<path class="st0" d="M8.8,62.5C8.8,63.3,8,64,7.3,64c-0.7,0-1.5-0.7-1.5-1.5c0-0.7,0.7-1.5,1.5-1.5C8,61,8.8,61.8,8.8,62.5
		L8.8,62.5z"/>
	<path class="st0" d="M17.8,62.5c0,0.7-0.7,1.5-1.5,1.5s-1.5-0.7-1.5-1.5c0-0.7,0.7-1.5,1.5-1.5S17.8,61.8,17.8,62.5L17.8,62.5z"/>
	<path class="st0" d="M13.3,58c0,0.7-0.7,1.5-1.5,1.5s-1.5-0.7-1.5-1.5c0-0.7,0.7-1.5,1.5-1.5S13.3,57.3,13.3,58L13.3,58z"/>
	<path class="st0" d="M13.3,67c0,0.7-0.7,1.5-1.5,1.5s-1.5-0.7-1.5-1.5c0-0.7,0.7-1.5,1.5-1.5C12.5,65.5,13.3,66.3,13.3,67L13.3,67z
		"/>
</g>
</svg>
