<?xml version="1.0" encoding="utf-8"?>
<!-- Generator: Adobe Illustrator 20.1.0, SVG Export Plug-In . SVG Version: 6.00 Build 0)  -->
<svg version="1.1" id="Layer_1" xmlns="http://www.w3.org/2000/svg" xmlns:xlink="http://www.w3.org/1999/xlink" x="0px" y="0px"
	 viewBox="0 0 512 512" style="enable-background:new 0 0 512 512;" xml:space="preserve">
<style type="text/css">
	.st0{fill:#0a677c;}
</style>
<path class="st0" d="M503.5,494.9h-8.5V25.6c0-14.1-11.5-25.6-25.6-25.6H42.7C28.5,0,17.1,11.5,17.1,25.6v469.3H8.5
	c-4.7,0-8.5,3.8-8.5,8.5c0,4.7,3.8,8.5,8.5,8.5h494.9c4.7,0,8.5-3.8,8.5-8.5C512,498.8,508.2,494.9,503.5,494.9z M68.3,51.2h375.5
	v443.7H68.3V51.2z M448.7,34.1H63.3L46.2,17.1h419.6L448.7,34.1z M34.1,29.1l17.1,17.1v448.7H34.1V29.1z M460.8,494.9V46.2
	l17.1-17.1v465.8H460.8z"/>
<path class="st0" d="M238.9,68.3H93.9c-4.7,0-8.5,3.8-8.5,8.5v392.5c0,4.7,3.8,8.5,8.5,8.5h145.1c4.7,0,8.5-3.8,8.5-8.5V76.8
	C247.5,72.1,243.6,68.3,238.9,68.3z M230.4,460.8h-128V85.3h128V460.8z"/>
<path class="st0" d="M418.1,68.3H273.1c-4.7,0-8.5,3.8-8.5,8.5v392.5c0,4.7,3.8,8.5,8.5,8.5h145.1c4.7,0,8.5-3.8,8.5-8.5V76.8
	C426.7,72.1,422.8,68.3,418.1,68.3z M409.6,460.8h-128V85.3h128V460.8z"/>
<path class="st0" d="M309.7,287.6c3.3,3.2,8.7,3.2,12-0.1c3.3-3.3,3.3-8.6,0.1-12l-17.1-17.1c-3.3-3.2-8.7-3.2-12,0.1
	c-3.3,3.3-3.3,8.6-0.1,12L309.7,287.6z"/>
<path class="st0" d="M190.2,287.6c3.3,3.3,8.7,3.3,12.1,0l17.1-17.1c3.2-3.3,3.2-8.7-0.1-12c-3.3-3.3-8.6-3.3-12-0.1l-17.1,17.1
	C186.9,278.9,186.9,284.3,190.2,287.6z"/>
<path class="st0" d="M119.5,128c2.3,0,4.4-0.9,6-2.5l17.1-17.1c3.2-3.3,3.2-8.7-0.1-12c-3.3-3.3-8.6-3.3-12-0.1l-17.1,17.1
	c-2.4,2.4-3.2,6.1-1.8,9.3C112.9,125.9,116,128,119.5,128z"/>
<path class="st0" d="M119.5,170.7c2.3,0,4.4-0.9,6-2.5l59.7-59.7c3.2-3.3,3.2-8.7-0.1-12c-3.3-3.3-8.6-3.3-12-0.1l-59.7,59.7
	c-2.4,2.4-3.2,6.1-1.8,9.3S116,170.7,119.5,170.7z"/>
<path class="st0" d="M298.7,128c2.3,0,4.4-0.9,6-2.5l17.1-17.1c3.2-3.3,3.2-8.7-0.1-12c-3.3-3.3-8.6-3.3-12-0.1l-17.1,17.1
	c-2.4,2.4-3.2,6.1-1.8,9.3C292.1,125.9,295.2,128,298.7,128z"/>
<path class="st0" d="M298.7,170.7c2.3,0,4.4-0.9,6-2.5l59.7-59.7c3.2-3.3,3.2-8.7-0.1-12c-3.3-3.3-8.6-3.3-12-0.1l-59.7,59.7
	c-2.4,2.4-3.2,6.1-1.8,9.3S295.2,170.7,298.7,170.7z"/>
</svg>
