<?xml version="1.0" encoding="utf-8"?>
<!-- Generator: Adobe Illustrator 20.1.0, SVG Export Plug-In . SVG Version: 6.00 Build 0)  -->
<svg version="1.1" id="Capa_1" xmlns="http://www.w3.org/2000/svg" xmlns:xlink="http://www.w3.org/1999/xlink" x="0px" y="0px"
	 viewBox="-49 141 512 512" style="enable-background:new -49 141 512 512;" xml:space="preserve">
<style type="text/css">
	.st0{fill:#0a677c;}
</style>
<path class="st0" d="M444.9,227.3c-5,0-9.1,4.1-9.1,9.1v372.8h-53.1v-20.4h23.9c5,0,9.1-4.1,9.1-9.1V419.2c0-5-4.1-9.1-9.1-9.1
	h-38.8V390h38.8c5,0,9.1-4.1,9.1-9.1V190.8c0-5-4.1-9.1-9.1-9.1H221.6c-5,0-9.1,4.1-9.1,9.1v112h-20.1v-112c0-5-4.1-9.1-9.1-9.1
	H-1.7c-5,0-9.1,4.1-9.1,9.1V342v38.9c0,5,4.1,9.1,9.1,9.1h32.8c5,0,9.1-4.1,9.1-9.1c0-5-4.1-9.1-9.1-9.1H7.4v-20.7h38.5
	c32.1,0,58.2-26.1,58.2-58.2v-93.1h70.2v112c0,5,4.1,9.1,9.1,9.1h38.2c5,0,9.1-4.1,9.1-9.1v-112h166.9v23.4h-24
	c-5,0-9.1,4.1-9.1,9.1v105.2c0,5,4.1,9.1,9.1,9.1h24v25.3h-38.8c-5,0-9.1,4.1-9.1,9.1v38.2c0,5,4.1,9.1,9.1,9.1h38.8v142.4h-24
	c-5,0-9.1,4.1-9.1,9.1v38.6c0,5,4.1,9.1,9.1,9.1h71.2c5,0,9.1-4.1,9.1-9.1V236.4C454,231.3,449.9,227.3,444.9,227.3z M86,292.9
	C86,315,68,333,45.9,333H7.4V199.8H14v5.9c0,5,4.1,9.1,9.1,9.1s9.1-4.1,9.1-9.1v-5.9h5.4v24c0,5,4.1,9.1,9.1,9.1s9.1-4.1,9.1-9.1
	v-24h5.4v5.9c0,5,4.1,9.1,9.1,9.1c5,0,9.1-4.1,9.1-9.1v-5.9H86L86,292.9L86,292.9z M382.7,328.4v-87h14.9v87H382.7z"/>
<path class="st0" d="M444.9,143.8H-39.9c-5,0-9.1,4.1-9.1,9.1v465.3c0,5,4.1,9.1,9.1,9.1h293.1c5,0,9.1-4.1,9.1-9.1v-38.6
	c0-5-4.1-9.1-9.1-9.1h-22.5v-88.4c0-5-4.1-9.1-9.1-9.1h-38.2c-5,0-9.1,4.1-9.1,9.1v88.4H7.4v-20.8H35c8.5,0,16.1-4.3,20.6-10.8
	c7.9,4.1,17,6.3,26.5,6.3c28.3,0,51.4-19.8,51.4-44.1c0-7.2-2.1-14.4-6-20.7c-2.6-4.3-8.2-5.6-12.5-3c-4.3,2.6-5.6,8.2-3,12.5
	c2.2,3.5,3.3,7.3,3.3,11.2c0,14.3-14.9,26-33.2,26c-8.2,0-16-2.4-22.1-6.6v-38.7c6.1-4.2,13.9-6.6,22.1-6.6c5.3,0,10.3,1,15,2.8
	c4.7,1.9,9.9-0.4,11.8-5c1.9-4.7-0.4-9.9-5-11.8c-6.8-2.7-14.2-4.1-21.8-4.1c-9.5,0-18.6,2.2-26.5,6.3c-4.5-6.5-12.1-10.8-20.6-10.8
	H7.4v-24.2h250.5c5,0,9.1-4.1,9.1-9.1v-38.2c0-5-4.1-9.1-9.1-9.1H60.2c-5,0-9.1,4.1-9.1,9.1c0,5,4.1,9.1,9.1,9.1h188.7v20.1H-1.7
	c-5,0-9.1,4.1-9.1,9.1v160.5c0,5,4.1,9.1,9.1,9.1h185.1c5,0,9.1-4.1,9.1-9.1v-88.4h20.1v88.4c0,5,4.1,9.1,9.1,9.1h22.5v20.4h-275
	V162h466.7v42.1c0,5,4.1,9.1,9.1,9.1c5,0,9.1-4.1,9.1-9.1v-51.2C454,147.9,449.9,143.8,444.9,143.8z M35,470.6
	c3.8,0,6.9,3.1,6.9,6.9v47.3c0,3.8-3.1,6.9-6.9,6.9H7.4v-61L35,470.6L35,470.6z"/>
<path class="st0" d="M330.5,223.2h-67c-5,0-9.1,4.1-9.1,9.1v105.2c0,5,4.1,9.1,9.1,9.1h67c5,0,9.1-4.1,9.1-9.1v-29.7v-45.9v-29.7
	C339.5,227.2,335.5,223.2,330.5,223.2z M272.5,328.4v-87h48.9v11.5H295c-5,0-9.1,4.1-9.1,9.1v45.9c0,5,4.1,9.1,9.1,9.1h26.4v11.5
	H272.5z M321.4,298.7h-17.3V271h17.3V298.7z"/>
<circle class="st0" cx="79.5" cy="501.1" r="9.1"/>
<circle class="st0" cx="46.7" cy="300" r="9.1"/>
<path class="st0" d="M281.3,647h62.9c4.3,0,7.9-3.5,7.9-7.9v-15.7v-15.7v-46.8v-94.6c0-0.1-0.1-0.1-0.1-0.2c0-1.1-0.3-2.3-0.8-3.3
	l-31.4-62.9c-1.9-3.9-6.7-5.5-10.5-3.5c-1.5,0.8-2.8,2-3.5,3.5l-31.4,62.9c-0.5,1.1-0.8,2.3-0.8,3.5v94.6v46.8v15.7v15.7
	C273.4,643.5,276.9,647,281.3,647z M294,458.4l18.7-37.4l18.7,37.4H294z M289.1,552.7v-78.6h15.7v78.6H289.1z M320.6,552.7v-78.6
	h15.7v78.6H320.6z M289.1,584.1v-15.7h47.2v15.7H289.1z M289.1,631.3v-31.4h47.2v31.4H289.1z"/>
</svg>
