<?xml version="1.0" encoding="utf-8"?>
<!-- Generator: Adobe Illustrator 16.2.0, SVG Export Plug-In . SVG Version: 6.00 Build 0)  -->
<!DOCTYPE svg PUBLIC "-//W3C//DTD SVG 1.1//EN" "http://www.w3.org/Graphics/SVG/1.1/DTD/svg11.dtd">
<svg version="1.1" id="Слой_1" xmlns="http://www.w3.org/2000/svg" xmlns:xlink="http://www.w3.org/1999/xlink" x="0px" y="0px"
	 width="800px" height="800px" viewBox="0 0 800 800" enable-background="new 0 0 800 800" xml:space="preserve">
<path fill="#FFFFFF" d="M400.156,220.313c-99.375,0-179.531,80.156-179.531,179.531s80.156,179.531,179.531,179.531
	s179.531-80.156,179.531-179.531S499.531,220.313,400.156,220.313z M400.156,516.563c-64.219,0-116.719-52.344-116.719-116.719
	s52.344-116.719,116.719-116.719s116.719,52.344,116.719,116.719S464.375,516.563,400.156,516.563z M628.906,212.969
	c0,23.281-18.75,41.875-41.875,41.875c-23.281,0-41.875-18.75-41.875-41.875s18.75-41.875,41.875-41.875
	S628.906,189.844,628.906,212.969z M747.813,255.469c-2.656-56.094-15.469-105.781-56.563-146.719
	C650.313,67.813,600.625,55,544.531,52.188c-57.813-3.281-231.094-3.281-288.906,0C199.688,54.844,150,67.656,108.906,108.594
	s-53.75,90.625-56.563,146.719c-3.281,57.813-3.281,231.094,0,288.906C55,600.313,67.813,650,108.906,690.938
	s90.625,53.75,146.719,56.563c57.813,3.281,231.094,3.281,288.906,0c56.094-2.656,105.781-15.469,146.719-56.563
	C732.188,650,745,600.313,747.813,544.219C751.094,486.406,751.094,313.281,747.813,255.469z M673.125,606.25
	c-12.188,30.625-35.781,54.219-66.563,66.563c-46.094,18.281-155.469,14.063-206.407,14.063c-50.938,0-160.468,4.063-206.405-14.063
	c-30.625-12.188-54.219-35.781-66.563-66.563c-18.281-46.094-14.063-155.469-14.063-206.406s-4.063-160.469,14.063-206.406
	c12.188-30.625,35.781-54.219,66.563-66.563c46.094-18.281,155.468-14.063,206.405-14.063c50.938,0,160.47-4.063,206.407,14.063
	c30.625,12.188,54.219,35.781,66.563,66.563c18.281,46.094,14.063,155.469,14.063,206.406S691.406,560.313,673.125,606.25z"/>
</svg>
