<?xml version="1.0" encoding="utf-8"?>
<!-- Generator: Adobe Illustrator 16.2.0, SVG Export Plug-In . SVG Version: 6.00 Build 0)  -->
<!DOCTYPE svg PUBLIC "-//W3C//DTD SVG 1.1//EN" "http://www.w3.org/Graphics/SVG/1.1/DTD/svg11.dtd">
<svg version="1.1" id="Слой_1" xmlns="http://www.w3.org/2000/svg" xmlns:xlink="http://www.w3.org/1999/xlink" x="0px" y="0px"
	 width="800px" height="800px" viewBox="0 0 800 800" enable-background="new 0 0 800 800" xml:space="preserve">
<path fill="#FFFFFF" d="M645.156,151.719C579.688,86.094,492.5,50,399.844,50C208.594,50,52.969,205.625,52.969,396.875
	c0,61.094,15.938,120.781,46.25,173.438L50,750l183.906-48.281c50.625,27.656,107.656,42.188,165.78,42.188h0.157
	C590.938,743.906,750,588.281,750,397.031C750,304.375,710.625,217.344,645.156,151.719z M399.844,685.469
	c-51.875,0-102.656-13.906-146.875-40.156l-10.469-6.25l-109.063,28.594L162.5,561.25l-6.875-10.938
	c-28.906-45.938-44.063-98.906-44.063-153.438c0-158.906,129.375-288.281,288.438-288.281c77.031,0,149.375,30,203.75,84.531
	S691.563,320,691.406,397.031C691.406,556.094,558.75,685.469,399.844,685.469z M557.969,469.531
	c-8.594-4.375-51.25-25.313-59.219-28.125c-7.969-2.969-13.75-4.375-19.531,4.375c-5.782,8.75-22.344,28.125-27.5,34.063
	c-5,5.781-10.156,6.563-18.75,2.188c-50.938-25.469-84.376-45.469-117.97-103.125c-8.906-15.313,8.906-14.219,25.469-47.344
	c2.813-5.781,1.406-10.781-0.781-15.156s-19.531-47.031-26.719-64.375c-7.031-16.875-14.219-14.531-19.53-14.844
	c-5-0.313-10.781-0.313-16.563-0.313s-15.156,2.188-23.125,10.781c-7.969,8.75-30.313,29.688-30.313,72.344
	s31.094,83.906,35.313,89.688c4.375,5.781,61.093,93.281,148.124,130.938c55.001,23.75,76.563,25.781,104.063,21.719
	c16.72-2.5,51.25-20.938,58.438-41.25s7.188-37.656,5-41.25C572.344,475.938,566.562,473.75,557.969,469.531z"/>
</svg>
