<?xml version="1.0" encoding="utf-8"?>
<!-- Generator: Adobe Illustrator 16.2.0, SVG Export Plug-In . SVG Version: 6.00 Build 0)  -->
<!DOCTYPE svg PUBLIC "-//W3C//DTD SVG 1.1//EN" "http://www.w3.org/Graphics/SVG/1.1/DTD/svg11.dtd">
<svg version="1.1" id="Слой_1" xmlns="http://www.w3.org/2000/svg" xmlns:xlink="http://www.w3.org/1999/xlink" x="0px" y="0px"
	 width="800px" height="800px" viewBox="0 0 800 800" enable-background="new 0 0 800 800" xml:space="preserve">
<path fill="#FFFFFF" d="M750,88.594V711.25c0,21.406-17.344,38.594-38.594,38.594H532.969V478.906h90.938L637.5,373.281H532.813
	v-67.5c0-30.625,8.438-51.406,52.344-51.406h55.938v-94.531c-9.688-1.25-42.813-4.219-81.563-4.219
	c-80.625,0-135.938,49.219-135.938,139.688v77.969h-91.25v105.625h91.25V750h-335C67.344,750,50,732.656,50,711.406V88.594
	C50,67.344,67.344,50,88.594,50H711.25C732.656,50,750,67.344,750,88.594z"/>
</svg>
