<?xml version="1.0" encoding="utf-8"?>
<!-- Generator: Adobe Illustrator 16.2.0, SVG Export Plug-In . SVG Version: 6.00 Build 0)  -->
<!DOCTYPE svg PUBLIC "-//W3C//DTD SVG 1.1//EN" "http://www.w3.org/Graphics/SVG/1.1/DTD/svg11.dtd">
<svg version="1.1" id="Слой_1" xmlns="http://www.w3.org/2000/svg" xmlns:xlink="http://www.w3.org/1999/xlink" x="0px" y="0px"
	 width="800px" height="800px" viewBox="0 0 800 800" enable-background="new 0 0 800 800" xml:space="preserve">
<path fill="#FFFFFF" d="M763.409,216.782c-8.724-32.848-34.427-58.717-67.062-67.496C637.196,133.333,400,133.333,400,133.333
	s-237.194,0-296.349,15.953c-32.635,8.78-58.338,34.648-67.062,67.496c-15.85,59.537-15.85,183.757-15.85,183.757
	s0,124.219,15.85,183.757c8.724,32.847,34.427,57.639,67.062,66.418C162.806,666.667,400,666.667,400,666.667
	s237.194,0,296.348-15.953c32.635-8.779,58.338-33.571,67.062-66.418c15.85-59.538,15.85-183.757,15.85-183.757
	S779.259,276.319,763.409,216.782z M322.423,513.321V287.757l198.249,112.784L322.423,513.321L322.423,513.321z"/>
</svg>
