<?xml version="1.0" encoding="utf-8"?>
<!-- Generator: Adobe Illustrator 20.1.0, SVG Export Plug-In . SVG Version: 6.00 Build 0)  -->
<svg version="1.1" id="Capa_1" xmlns="http://www.w3.org/2000/svg" xmlns:xlink="http://www.w3.org/1999/xlink" x="0px" y="0px"
	 viewBox="-49 141 512 512" style="enable-background:new -49 141 512 512;" xml:space="preserve">
<style type="text/css">
	.st0{fill:#0a677c;}
</style>
<g>
	<path class="st0" d="M420.3,226.3h-26l16.8-16.8c0,0,0,0,0,0c12.3-12.3,12.3-32.3,0-44.6l-14.7-14.7c-12.5-11.9-32.1-11.9-44.6,0
		l-76.1,76.1h-250c-17.7,0-32,14.3-32,32v77.9l-39.5,39.5c-4.2,4.2-4.2,10.9,0,15.1l39.5,39.5v105.3c0,17.7,14.3,32,32,32H131
		l82.2,82.2c2,2,4.7,3.1,7.5,3.1c2.8,0,5.5-1.1,7.5-3.1l60.9-60.9c4.2-4.2,4.2-10.9,0-15.1l-6.2-6.2h94.6V621
		c0,5.9,4.8,10.7,10.7,10.7h32c23.6,0,42.7-19.1,42.7-42.7V269C463,245.4,443.9,226.3,420.3,226.3z M201.8,339.7l19.8,19.8
		l-29.7,9.9L201.8,339.7z M212.2,320l117.6-117.6l29.1,29.1L241.4,349.1L212.2,320z M366.9,165.3c4-3.8,10.4-3.8,14.4,0l14.8,14.7
		c0,0,0,0,0,0c4,4,4,10.4,0,14.4l-22,22l-29.1-29.1L366.9,165.3z M25.7,546.3c-5.9,0-10.7-4.8-10.7-10.7v-84l94.6,94.6H25.7z
		 M220.7,627.3l-244-244l45.9-45.9l29.1,29.1l-22.9,22.9l15.1,15.1l22.9-22.9l27.6,27.6l-22.9,22.9l15.1,15.1l22.9-22.9l27.6,27.6
		l-22.9,22.9l15.1,15.1l22.9-22.9l27.6,27.6l-22.9,22.9l15.1,15.1l22.9-22.9l27.6,27.6l-22.9,22.9l15.1,15.1l22.9-22.9l29.1,29.1
		L220.7,627.3z M261.7,546.3L30.2,314.8c-4.2-4.2-10.9-4.2-15.1,0l-0.1,0.1v-56.5c0-5.9,4.8-10.7,10.7-10.7h228.7l-64.8,64.8
		c-1.2,1.2-2.1,2.6-2.6,4.2l0,0L164.9,383c-0.4,1.1-0.5,2.2-0.5,3.4c0,5.9,4.8,10.7,10.7,10.7h160v-21.3h-94.2l3.9-1.3l0,0
		c1.6-0.5,3-1.4,4.2-2.6L373,247.7h47.3c11.8,0,21.3,9.6,21.3,21.3v283.1c-6.3-3.6-13.6-5.7-21.3-5.7H261.7z M420.3,610.3H399v-42.7
		h21.3c11.8,0,21.3,9.6,21.3,21.3C441.7,600.8,432.1,610.3,420.3,610.3z"/>
	<rect x="356.3" y="375.7" class="st0" width="21.3" height="21.3"/>
	<rect x="399" y="375.7" class="st0" width="21.3" height="21.3"/>
</g>
</svg>
