<?xml version="1.0" encoding="utf-8"?>
<!-- Generator: Adobe Illustrator 20.1.0, SVG Export Plug-In . SVG Version: 6.00 Build 0)  -->
<svg version="1.1" id="Layer_1" xmlns="http://www.w3.org/2000/svg" xmlns:xlink="http://www.w3.org/1999/xlink" x="0px" y="0px"
	 viewBox="0 0 90.7 90.7" style="enable-background:new 0 0 90.7 90.7;" xml:space="preserve">
<style type="text/css">
	.st0{fill:#0a677c;}
</style>
<g>
	<path class="st0" d="M83.6,1.8H18.9c-1.8,0-3.4,1.1-4,2.8h-4.5C9.6,4.6,9,5.3,9,6v9.9H7.6c-2.4,0-4.2,1.9-4.2,4.2v14.1
		c0,2.4,1.9,4.2,4.2,4.2h39.4c0.8,0,1.4,0.7,1.4,1.4v9.9h-4.3c-0.8,0-1.4,0.7-1.4,1.4v36.8c0,0.8,0.7,1.4,1.4,1.4h11.2
		c0.8,0,1.4-0.7,1.4-1.4V51.1c0-0.8-0.7-1.4-1.4-1.4h-4.2v-9.9c0-2.4-1.9-4.2-4.2-4.2H7.5c-0.8,0-1.4-0.7-1.4-1.4V20.1
		c0-0.8,0.7-1.4,1.4-1.4H9v9.9c0,0.8,0.7,1.4,1.4,1.4h4.5c0.6,1.6,2.2,2.8,4,2.8h40.8v7c0,2.4,1.9,4.2,4.2,4.2
		c0.8,0,1.4,0.7,1.4,1.4v8.4c0,2.4,1.9,4.2,4.2,4.2c2.4,0,4.2-1.9,4.2-4.2v-2.8c0-0.8,0.7-1.4,1.4-1.4c0.8,0,1.4,0.7,1.4,1.4v5.7
		c0,2.4,1.9,4.2,4.2,4.2c2.3,0,4.2-1.9,4.2-4.2V32.5c1.6-0.6,2.8-2.2,2.8-4V6.1C87.8,3.7,85.8,1.8,83.6,1.8L83.6,1.8z M45.5,86.2
		V58.1h8.4v28.1H45.5z M54,55.3h-8.4v-2.8H54V55.3z M11.7,7.4h2.8v19.7h-2.8V7.4z M80.7,58.1c-0.8,0-1.4-0.7-1.4-1.4v-5.7
		c0-2.4-4.8-4.2-7-4.2c-2.4,0-1.4,1.9-1.4,4.2v2.8c0,0.8-0.7,1.4-1.4,1.4c-0.8,0-1.4-0.7-1.4-1.4v-8.4c0-2.4-1.9-4.2-4.2-4.2
		c-0.8,0-1.4-0.7-1.4-1.4v-7h19.4v23.9C82.1,57.4,81.5,58.1,80.7,58.1L80.7,58.1z M84.9,28.5c0,0.8-0.7,1.4-1.4,1.4H18.9
		c-0.8,0-1.4-0.7-1.4-1.4V6.1c0-0.8,0.7-1.4,1.4-1.4h64.7c0.8,0,1.4,0.7,1.4,1.4V28.5z"/>
	<rect x="48.3" y="80.5" class="st0" width="2.8" height="2.8"/>
	<path class="st0" d="M79.4,24.3H52.6v2.8h28.1c0.8,0,1.4-0.7,1.4-1.4v-7h-2.8v5.6H79.4z"/>
	<path class="st0" d="M52.6,7.4H21.6c-0.8,0-1.4,0.7-1.4,1.4v7h2.8v-5.7h29.6V7.4z"/>
	<path class="st0" d="M82.1,63.6c-2.4,0-4.2,1.9-4.2,4.2v2.8c0,2.4,1.9,4.2,4.2,4.2s4.2-1.9,4.2-4.2v-2.8
		C86.4,65.6,84.5,63.6,82.1,63.6L82.1,63.6z M83.6,70.8c0,0.8-0.7,1.4-1.4,1.4c-0.8,0-1.4-0.7-1.4-1.4v-2.8c0-0.8,0.7-1.4,1.4-1.4
		c0.8,0,1.4,0.7,1.4,1.4V70.8z"/>
	<path class="st0" d="M28.6,41.2c-2.4,0-4.2,1.9-4.2,4.2c0,2.4,1.9,4.2,4.2,4.2c2.4,0,4.2-1.9,4.2-4.2C32.9,43.1,31,41.2,28.6,41.2
		L28.6,41.2z M28.6,46.9c-0.8,0-1.4-0.7-1.4-1.4c0-0.8,0.7-1.4,1.4-1.4c0.8,0,1.4,0.7,1.4,1.4C30.1,46.2,29.4,46.9,28.6,46.9
		L28.6,46.9z"/>
	<path class="st0" d="M20.2,49.6c-3.9,0-7,3.2-7,7s3.2,7,7,7s7-3.2,7-7C27.2,52.8,24.1,49.6,20.2,49.6L20.2,49.6z M20.2,60.9
		c-2.4,0-4.2-1.9-4.2-4.2c0-2.4,1.9-4.2,4.2-4.2c2.4,0,4.2,1.9,4.2,4.2C24.4,59,22.5,60.9,20.2,60.9L20.2,60.9z"/>
</g>
</svg>
