<?xml version="1.0" encoding="utf-8"?>
<!-- Generator: Adobe Illustrator 20.1.0, SVG Export Plug-In . SVG Version: 6.00 Build 0)  -->
<svg version="1.1" id="Layer_1" xmlns="http://www.w3.org/2000/svg" xmlns:xlink="http://www.w3.org/1999/xlink" x="0px" y="0px"
	 viewBox="0 0 90.7 90.7" style="enable-background:new 0 0 90.7 90.7;" xml:space="preserve">
<style type="text/css">
	.st0{fill:#0a677c;}
</style>
<g>
	<path class="st0" d="M59.8,59V33.5H32.4V7.9h-31v25.6v3.7V59v3.7v25.6h27.4h3.7h23.7h3.7H89V59H59.8z M56.1,37.1V59H32.4V37.1H56.1
		z M5,11.5h23.7v21.9H5V11.5z M5,37.1h23.7V59H5V37.1z M28.7,84.6H5V62.7h23.7L28.7,84.6L28.7,84.6z M56.1,84.6H32.4V62.7h23.7V84.6
		z M85.3,84.6H59.8V62.7h25.6L85.3,84.6L85.3,84.6z"/>
	<path class="st0" d="M25.1,13.4H8.6c-1,0-1.8,0.8-1.8,1.8v14.6c0,1,0.8,1.8,1.8,1.8s1.8-0.8,1.8-1.8V17h14.6c1,0,1.8-0.8,1.8-1.8
		S26.1,13.4,25.1,13.4z"/>
	<path class="st0" d="M25.1,38.9H8.6c-1,0-1.8,0.8-1.8,1.8v14.6c0,1,0.8,1.8,1.8,1.8s1.8-0.8,1.8-1.8V42.6h14.6c1,0,1.8-0.8,1.8-1.8
		S26.1,38.9,25.1,38.9z"/>
	<path class="st0" d="M8.6,82.8c1,0,1.8-0.8,1.8-1.8V68.2h14.6c1,0,1.8-0.8,1.8-1.8c0-1-0.8-1.8-1.8-1.8H8.6c-1,0-1.8,0.8-1.8,1.8
		v14.6C6.8,82,7.6,82.8,8.6,82.8z"/>
	<path class="st0" d="M36,57.2c1,0,1.8-0.8,1.8-1.8V42.6h14.6c1,0,1.8-0.8,1.8-1.8s-0.8-1.8-1.8-1.8H36c-1,0-1.8,0.8-1.8,1.8v14.6
		C34.2,56.4,35,57.2,36,57.2z"/>
	<path class="st0" d="M36,82.8c1,0,1.8-0.8,1.8-1.8V68.2h14.6c1,0,1.8-0.8,1.8-1.8c0-1-0.8-1.8-1.8-1.8H36c-1,0-1.8,0.8-1.8,1.8
		v14.6C34.2,82,35,82.8,36,82.8z"/>
	<path class="st0" d="M63.4,82.8c1,0,1.8-0.8,1.8-1.8V68.2h16.4c1,0,1.8-0.8,1.8-1.8c0-1-0.8-1.8-1.8-1.8H63.4c-1,0-1.8,0.8-1.8,1.8
		v14.6C61.6,82,62.4,82.8,63.4,82.8z"/>
</g>
</svg>
