<?xml version="1.0" encoding="utf-8"?>
<!-- Generator: Adobe Illustrator 20.1.0, SVG Export Plug-In . SVG Version: 6.00 Build 0)  -->
<svg version="1.1" id="Capa_1" xmlns="http://www.w3.org/2000/svg" xmlns:xlink="http://www.w3.org/1999/xlink" x="0px" y="0px"
	 viewBox="0 0 512 512" style="enable-background:new 0 0 512 512;" xml:space="preserve">
<style type="text/css">
	.st0{fill:#0a677c;}
</style>
<g>
	<path class="st0" d="M482.4,275.7h-47.3c0-0.9,0-0.9,0-1.8V224c0-10.5-8.8-19.3-19.3-19.3H233.2c-4.4,0-7.9,0.9-10.5,3.5
		c-3.5-1.8-7-3.5-10.5-3.5H40.9c-10.5,0-19.3,8.8-19.3,19.3v49.9c0,10.5,8.8,19.3,19.3,19.3h47.3c0,0.9,0,0.9,0,1.8v49.9
		c0,0.9,0,0.9,0,1.8H40.9c-10.5,0-19.3,8.8-19.3,19.3v49.9c0,10.5,8.8,19.3,19.3,19.3h47.3c0,0.9,0,0.9,0,1.8v49.9
		c0,10.5,8.8,19.3,19.3,19.3h199.6c4.4,0,7.9-0.9,10.5-3.5c3.5,1.8,7,3.5,10.5,3.5h154.3c10.5,0,19.3-8.8,19.3-19.3V437
		c0-10.5-8.8-19.3-19.3-19.3h-47.3c0-0.9,0-0.9,0-1.8V366c0-0.9,0-0.9,0-1.8h47.3c10.5,0,19.3-8.8,19.3-19.3V295
		C501.6,284.4,492.9,275.7,482.4,275.7z M233.2,221.4h182.6c0.9,0,1.8,0.9,1.8,1.8V273c0,0.9-0.9,1.8-1.8,1.8h-87.7h-21h-73
		c-0.9,0-1.8-0.9-1.8-1.8v-49.9C231.5,222.2,232.4,221.4,233.2,221.4z M39.2,273.9V224c0-0.9,0.9-1.8,1.8-1.8h171.3
		c0.9,0,1.8,0.9,1.8,1.8v49.9c0,0.9-0.9,1.8-1.8,1.8H107.6H40.9C40.1,275.7,39.2,274.8,39.2,273.9z M105.8,345.7v-49.9
		c0-0.9,0.9-1.8,1.8-1.8h104.7h21h73c0.9,0,1.8,0.9,1.8,1.8v49.9c0,0.9-0.9,1.8-1.8,1.8h-73h-21H107.6
		C106.6,347.5,105.8,346.6,105.8,345.7z M39.2,417.5v-49.9c0-0.9,0.9-1.8,1.8-1.8h66.6h104.7c0.9,0,1.8,0.9,1.8,1.8v49.9
		c0,0.9-0.9,1.8-1.8,1.8H107.6H40.9C40.1,419.3,39.2,418.4,39.2,417.5z M307.1,491.1H107.5c-0.9,0-1.8-0.9-1.8-1.8v-49.9
		c0-0.9,0.9-1.8,1.8-1.8h104.7h21h73c0.9,0,1.8,0.9,1.8,1.8v49.9C308.8,490.2,307.9,491.1,307.1,491.1z M484.1,438.6v49.9
		c0,0.9-0.9,1.8-1.8,1.8H328.1c-0.9,0-1.8-0.9-1.8-1.8v-49.9c0-0.9,0.9-1.8,1.8-1.8h87.7h66.6C483.2,436.8,484.1,437.7,484.1,438.6z
		 M417.5,366.7v49.9c0,0.9-0.9,1.8-1.8,1.8H328h-21h-73c-0.9,0-1.8-0.9-1.8-1.8v-49.9c0-0.9,0.9-1.8,1.8-1.8h73h21h87.7
		C416.7,365,417.5,365.9,417.5,366.7z M484.1,345.7c0,0.9-0.9,1.8-1.8,1.8h-66.6H328c-0.9,0-1.8-0.9-1.8-1.8v-49.9
		c0-0.9,0.9-1.8,1.8-1.8h87.7h66.6c0.9,0,1.8,0.9,1.8,1.8V345.7z"/>
	<path class="st0" d="M152.7,146c-2.6,1.8-3.5,5.3-2.6,8.8s2.6,5.3,6.1,6.1l99,29.8c0.9,0,1.8,0,2.6,0c2.6,0,4.4-0.9,6.1-2.6
		c2.6-2.6,3.5-5.3,2.6-8.8L240.2,78.6c-0.9-2.6-3.5-5.3-6.1-6.1c-2.6-0.9-6.1,0-8.8,2.6l-21.9,21V81.2c0-2.6-0.9-5.3-3.5-7l-9.6-7.9
		c3.5-7.9,1.8-16.6-4.4-22.8L150,11.2c-7.9-7-20.1-7-27.2,0.9l-1.8,1.8l0,0c-7,7.9-7,20.1,0.9,27.2l35.9,32.4
		c3.5,3.5,7.9,5.3,13.1,5.3h0.9c1.8,0,3.5-0.9,5.3-0.9l0,0l8.8,7v28L152.7,146z M170.2,61.9c0,0-0.9,0-1.8-0.9l-35-32.4
		c-0.9-0.9-0.9-1.8,0-2.6l1.8-1.8c0.9-0.9,1.8-0.9,2.6,0l35.9,32.4c0.9,0.9,0.9,1.8,0,2.6l-1.8,1.8C171,61.9,170.2,61.9,170.2,61.9z
		 M226.2,97.9l19.3,70.9l-70.1-21l19.3-19.3l18.4,17.5c1.8,1.8,3.5,2.6,6.1,2.6s4.4-0.9,6.1-2.6c3.5-3.5,3.5-8.8,0-12.3L207,117.1
		L226.2,97.9z"/>
</g>
</svg>
